<svg xmlns="http://www.w3.org/2000/svg" width="241.173" height="65.337" viewBox="0 0 241.173 65.337"><g transform="translate(-491.787 -387.771)"><path d="M506.393,404.913c-.036.027-.094.068-.147.114-.025.021-.059.053-.061.082a1.316,1.316,0,0,1-.2.483c-.039.085-.115.156-.15.243a1.026,1.026,0,0,1-.115.259,1.8,1.8,0,0,0-.2.4c-.056.147-.181.263-.186.431-.2.24-.222.57-.4.825a.321.321,0,0,0-.039.152.3.3,0,0,1-.1.259.158.158,0,0,0-.052.089,8.4,8.4,0,0,1-.278.819.58.58,0,0,0-.026.129.365.365,0,0,1-.108.286.323.323,0,0,0-.078.247.5.5,0,0,1-.083.324.753.753,0,0,0-.066.252c-.029.119-.058.239-.086.358a.116.116,0,0,0-.007.025,6.308,6.308,0,0,1-.192.818,1.932,1.932,0,0,0-.023.342.448.448,0,0,1-.07.3.231.231,0,0,0-.035.124,8.061,8.061,0,0,0-.082,1.028.539.539,0,0,1-.055.282.463.463,0,0,0-.036.2c0,.583,0,1.164,0,1.747a.411.411,0,0,0,.011.131,2.661,2.661,0,0,1,.083.733c.007.22.024.441.034.661,0,.087,0,.174,0,.287a.2.2,0,0,0,.046.059.289.289,0,0,1,.1.259c-.005.079,0,.159,0,.237a.564.564,0,0,0,.1.352.459.459,0,0,1,.08.274,2.223,2.223,0,0,0,.226.806,1.033,1.033,0,0,1,.054.174c.011.051.011.105.023.156.037.151.165.259.168.437a1.345,1.345,0,0,0,.143.448c.06.145.1.3.17.436a6.9,6.9,0,0,0,.353.759c.074.115.086.27.221.35.021.012.016.065.027.1s.017.093.046.117a.83.83,0,0,1,.208.332.29.29,0,0,0,.051.091,4.674,4.674,0,0,1,.38.567c.094.147.207.283.311.426.123.169.269.318.392.488.064.088.16.145.215.253.043.089.147.146.221.22s.169.131.2.242a.105.105,0,0,0,.053.055,2.2,2.2,0,0,1,.413.363c.081.078.171.148.257.222.191.164.373.34.576.49.24.174.495.329.749.486a.373.373,0,0,1,.162.126.1.1,0,0,0,.059.051c.173.029.279.18.433.236.175.061.316.184.492.24a.552.552,0,0,1,.115.061,1.373,1.373,0,0,0,.5.226.225.225,0,0,1,.1.04.532.532,0,0,0,.362.138.1.1,0,0,1,.075.022c.189.167.45.14.663.248a3.332,3.332,0,0,0,.326.1,1.169,1.169,0,0,0,.437.086.291.291,0,0,1,.153.026,1.488,1.488,0,0,0,.74.158,1.388,1.388,0,0,1,.519.076.426.426,0,0,0,.155.027c.723.034,1.446.03,2.169,0a.76.76,0,0,0,.21-.022,2.034,2.034,0,0,1,.625-.087,1.144,1.144,0,0,0,.632-.154.162.162,0,0,1,.1-.024,1.382,1.382,0,0,0,.54-.1c.144-.037.281-.1.423-.145a.778.778,0,0,1,.129-.028c.035-.005.069-.007.1-.013.133-.025.206-.172.352-.17a.66.66,0,0,0,.34-.125,2.787,2.787,0,0,1,.388-.152c.088-.036.173-.084.261-.123.047-.024.094-.044.142-.063s.111-.021.146-.054c.185-.17.448-.209.629-.383.175,0,.259-.162.4-.225s.255-.187.4-.253c.1-.047.118-.164.239-.194.1-.026.182-.129.27-.2a2.691,2.691,0,0,1,.24-.2c.192-.127.328-.319.509-.455a5.624,5.624,0,0,0,.681-.682c.21-.222.386-.473.613-.682a1.619,1.619,0,0,0,.2-.274c.226-.323.468-.638.67-.976.168-.279.42-.494.562-.789a2.471,2.471,0,0,0,.371-.4c.155-.18.323-.349.488-.519s.332-.341.5-.505c.14-.132.287-.256.432-.382l.2-.174c.025-.024.046-.06.076-.071a1.708,1.708,0,0,0,.438-.32c.049-.038.1-.071.152-.1.344-.222.686-.449,1.045-.648a.608.608,0,0,1,.118-.057.309.309,0,0,0,.2-.119.137.137,0,0,1,.086-.054,1.256,1.256,0,0,0,.364-.153,1.107,1.107,0,0,1,.39-.154.29.29,0,0,0,.115-.06.668.668,0,0,1,.11-.072,1.315,1.315,0,0,0,.274-.077.966.966,0,0,1,.262-.118c.187-.046.367-.118.559-.148a.285.285,0,0,0,.125-.041.839.839,0,0,1,.475-.117.616.616,0,0,0,.252-.074,1.244,1.244,0,0,1,.437-.093,3.957,3.957,0,0,0,.417-.053,4.816,4.816,0,0,1,.9-.064c.609,0,1.216.009,1.826.017a.924.924,0,0,1,.158.009,4.856,4.856,0,0,0,.732.108,1.347,1.347,0,0,1,.353.1.97.97,0,0,0,.361.062.435.435,0,0,1,.3.085.377.377,0,0,0,.17.066,4.754,4.754,0,0,1,.537.137.588.588,0,0,1,.262.114.086.086,0,0,0,.044.027,1.431,1.431,0,0,1,.556.207,2.778,2.778,0,0,0,.528.23c.2.057.334.229.542.254a.19.19,0,0,1,.068.039c.071.049.143.1.214.149.1.078.249.093.323.217.233.046.364.271.584.344.054.018.1.075.142.114a4.845,4.845,0,0,1,.577.452.284.284,0,0,0,.092.046c.023.012.063.016.069.032.045.13.192.156.255.256.077.123.233.164.288.3a.853.853,0,0,1,.308.237c.023.027.06.045.073.076.078.185.255.282.376.428a2.571,2.571,0,0,1,.292.322c.073.124.177.217.256.332.2.287.418.562.6.859a4.087,4.087,0,0,1,.406.7c.015.04.043.076.061.117a3.106,3.106,0,0,1,.272.5,4.432,4.432,0,0,0,.232.5.7.7,0,0,0,.174.346c.033.028.026.1.037.149a.539.539,0,0,0,.039.177,2.4,2.4,0,0,1,.239.688.915.915,0,0,0,.127.344.334.334,0,0,1,.052.2,1.344,1.344,0,0,0,.112.513.556.556,0,0,1,.05.149c.031.4.142.8.161,1.2s.032.812.042,1.216c.006.257.009.513,0,.769-.015.413-.042.826-.064,1.24-.005.088-.013.177-.02.264a.871.871,0,0,1-.016.185,2.371,2.371,0,0,0-.1.648.469.469,0,0,1-.043.124,1.227,1.227,0,0,0-.119.563.213.213,0,0,1-.04.147.846.846,0,0,0-.135.37.854.854,0,0,1-.093.326.382.382,0,0,0-.03.128.388.388,0,0,1-.027.128.742.742,0,0,0-.144.443.082.082,0,0,1-.017.049c-.112.088-.125.224-.179.342s-.092.226-.132.341a1.147,1.147,0,0,0-.138.4.1.1,0,0,1-.043.063.423.423,0,0,0-.125.225c-.061.162-.146.316-.219.475-.023.047-.041.1-.062.144s-.058.127-.091.188c-.021.039-.07.072-.071.107a.993.993,0,0,1-.19.428c-.069.142-.151.279-.226.418-.013.022-.036.046-.036.069a.8.8,0,0,1-.183.372c-.093.151-.18.3-.267.453a.469.469,0,0,0-.032.1c-.011.033-.011.08-.034.1-.194.152-.216.42-.391.582a8.257,8.257,0,0,1-.521.847,3.279,3.279,0,0,1-.318.484c-.109.12-.169.282-.281.41-.14.155-.258.332-.384.5-.011.013-.032.023-.037.039a1.57,1.57,0,0,1-.318.444c-.108.148-.236.283-.341.433-.124.179-.288.328-.414.5-.174.244-.406.439-.561.7-.029.048-.106.065-.139.112-.147.216-.373.359-.522.576a1.264,1.264,0,0,1-.276.28c-.209.159-.349.393-.573.534-.076.154-.241.219-.351.344s-.237.207-.35.316-.246.228-.376.334a3.745,3.745,0,0,0-.466.377c-.106.125-.267.151-.366.283a1.37,1.37,0,0,1-.364.3c-.236.153-.451.328-.683.487s-.5.322-.746.486c-.058.039-.1.127-.156.136-.179.026-.275.174-.418.253-.1.055-.24.072-.3.2-.109.037-.2.119-.3.162a5.052,5.052,0,0,0-.55.3c-.095.055-.21.074-.277.175a.077.077,0,0,1-.047.022,1.2,1.2,0,0,0-.407.185.671.671,0,0,1-.29.117c-.016,0-.042.006-.049.018-.1.184-.318.164-.474.255a1.244,1.244,0,0,1-.431.186.3.3,0,0,0-.138.073.348.348,0,0,1-.236.1.122.122,0,0,0-.075.018,1.523,1.523,0,0,1-.456.2,1.26,1.26,0,0,0-.473.221.031.031,0,0,1-.024.009c-.2-.021-.344.108-.512.175a5.144,5.144,0,0,1-.508.141.485.485,0,0,0-.148.054.657.657,0,0,1-.373.109.341.341,0,0,0-.188.08.391.391,0,0,1-.268.092.746.746,0,0,0-.3.07,1.345,1.345,0,0,1-.3.081.968.968,0,0,0-.275.087.547.547,0,0,1-.229.043.875.875,0,0,0-.428.115.457.457,0,0,1-.277.067,1.068,1.068,0,0,0-.388.064,2.087,2.087,0,0,1-.362.081,1.959,1.959,0,0,0-.463.1.574.574,0,0,1-.207.034,3.377,3.377,0,0,0-.577.066.607.607,0,0,0-.248.082.33.33,0,0,1-.151.035,1.858,1.858,0,0,1-.211,0,3.376,3.376,0,0,0-1.044.132.857.857,0,0,1-.184.02c-.326.01-.652.014-.978.027-.1,0-.208.024-.313.037s-.192.03-.288.032c-.758.009-1.517.019-2.275.022-.291,0-.582-.013-.873-.022a.15.15,0,0,1-.052,0,3.067,3.067,0,0,0-.915-.082c-.088-.006-.177,0-.265-.006a1.7,1.7,0,0,1-.468-.071,2.175,2.175,0,0,0-.732-.089.634.634,0,0,1-.479-.09c-.2-.03-.4-.066-.6-.088a3.088,3.088,0,0,1-.414-.07c-.3-.067-.6-.123-.9-.207a.866.866,0,0,0-.185-.013.426.426,0,0,1-.225-.065.7.7,0,0,0-.428-.11.259.259,0,0,1-.152-.031.954.954,0,0,0-.349-.117,3.06,3.06,0,0,0-.613-.148.132.132,0,0,1-.073-.028.685.685,0,0,0-.445-.141.122.122,0,0,1-.076-.019,1.605,1.605,0,0,0-.483-.2.713.713,0,0,0-.2-.055.321.321,0,0,1-.232-.107.128.128,0,0,0-.087-.053.822.822,0,0,1-.391-.141c-.071-.031-.152-.045-.225-.072a2.822,2.822,0,0,1-.384-.171.524.524,0,0,0-.241-.092.241.241,0,0,1-.227-.108.131.131,0,0,0-.083-.057,1.487,1.487,0,0,1-.482-.208.524.524,0,0,0-.143-.065.427.427,0,0,1-.3-.15c-.26-.061-.45-.274-.71-.339a.174.174,0,0,1-.091-.048.334.334,0,0,0-.224-.127.2.2,0,0,1-.1-.041c-.167-.178-.43-.2-.6-.379-.175-.04-.282-.2-.447-.256a1.025,1.025,0,0,1-.235-.166.358.358,0,0,0-.109-.064.345.345,0,0,1-.18-.1.952.952,0,0,0-.157-.1c-.075-.046-.148-.1-.222-.142-.1-.067-.21-.129-.306-.2a4.3,4.3,0,0,1-.419-.32,2.441,2.441,0,0,0-.3-.2c-.189-.141-.365-.306-.56-.436-.231-.155-.432-.348-.654-.515-.161-.12-.294-.28-.458-.4-.215-.151-.37-.368-.6-.5a1.694,1.694,0,0,1-.206-.2c-.142-.131-.293-.252-.43-.389-.32-.315-.642-.628-.945-.959-.136-.151-.285-.289-.407-.448-.149-.2-.332-.357-.482-.546a2.4,2.4,0,0,1-.3-.356,1.915,1.915,0,0,0-.286-.343c-.1-.118-.211-.235-.309-.356a1.961,1.961,0,0,1-.156-.242c-.087-.152-.233-.254-.327-.4a1.976,1.976,0,0,0-.283-.408,1.793,1.793,0,0,1-.242-.332,3.622,3.622,0,0,0-.218-.326,3.145,3.145,0,0,1-.2-.3,1.6,1.6,0,0,1-.2-.273c-.07-.162-.2-.28-.28-.436s-.161-.291-.25-.433c-.07-.108-.177-.2-.19-.34-.189-.165-.2-.447-.391-.609-.03-.178-.2-.286-.23-.467a.52.52,0,0,0-.074-.139c-.063-.123-.125-.249-.189-.373-.027-.055-.057-.109-.088-.161-.017-.03-.058-.054-.062-.083-.035-.27-.265-.451-.318-.713a.412.412,0,0,0-.061-.115.585.585,0,0,1-.062-.084,1.776,1.776,0,0,0-.093-.272,1.126,1.126,0,0,1-.134-.223,1.5,1.5,0,0,0-.238-.525c-.035-.041-.032-.115-.048-.173a.859.859,0,0,0-.069-.224,1.583,1.583,0,0,1-.21-.617.162.162,0,0,0-.057-.111.279.279,0,0,1-.119-.225c-.007-.05-.005-.117-.036-.15a.993.993,0,0,1-.183-.481c-.049-.194-.153-.372-.207-.566a1.556,1.556,0,0,0-.206-.533.168.168,0,0,1-.015-.1.514.514,0,0,0-.108-.373.109.109,0,0,1-.03-.07,4.911,4.911,0,0,0-.148-.668.9.9,0,0,0-.1-.324.541.541,0,0,1-.068-.277.7.7,0,0,0-.123-.45.245.245,0,0,1-.046-.148,3.465,3.465,0,0,0-.14-.83,1.463,1.463,0,0,0-.128-.51.506.506,0,0,1-.023-.26,7.186,7.186,0,0,0-.1-.759c-.128-.151-.079-.334-.089-.506a1.031,1.031,0,0,0-.016-.186,7.277,7.277,0,0,1-.163-1.521.61.61,0,0,0-.065-.305.485.485,0,0,1-.032-.231c0-.275,0-.548,0-.821,0-.132-.025-.261-.039-.393-.006-.062-.016-.123-.016-.184,0-.635,0-1.271,0-1.906a7.536,7.536,0,0,1,.038-.765c.026-.253.013-.511.016-.766,0-.133-.005-.265,0-.4a.439.439,0,0,1,.028-.207.99.99,0,0,0,.08-.49,7,7,0,0,1,.146-1.313,2.538,2.538,0,0,0,.022-.42.524.524,0,0,1,.1-.375c.03-.181.062-.363.088-.546.009-.069,0-.14,0-.21a.314.314,0,0,1,.029-.154.929.929,0,0,0,.123-.428,2.768,2.768,0,0,1,.107-.516.3.3,0,0,0,.016-.1.862.862,0,0,1,.127-.5.242.242,0,0,0,.042-.123c0-.35.21-.651.214-1,.1-.2.086-.432.2-.623a.483.483,0,0,0,.055-.281.371.371,0,0,1,.077-.245.594.594,0,0,0,.1-.24c.019-.086.061-.166.078-.246a6,6,0,0,0,.213-.7.315.315,0,0,1,.069-.165.457.457,0,0,0,.109-.29.351.351,0,0,1,.033-.126c.069-.152.143-.3.212-.453a.331.331,0,0,0,.029-.127.338.338,0,0,1,.109-.259.184.184,0,0,0,.067-.11c-.012-.238.18-.4.232-.608a5.978,5.978,0,0,0,.25-.632.136.136,0,0,1,.036-.069,1.821,1.821,0,0,0,.241-.468.529.529,0,0,1,.118-.2.163.163,0,0,0,.047-.116.557.557,0,0,1,.1-.263,3.277,3.277,0,0,0,.378-.714.226.226,0,0,1,.05-.091,2.78,2.78,0,0,0,.264-.454c.09-.146.117-.332.271-.438a.069.069,0,0,0,.025-.046c0-.157.111-.25.188-.366a1.627,1.627,0,0,1,.22-.357.216.216,0,0,0,.063-.113.254.254,0,0,1,.128-.188.121.121,0,0,0,.048-.061.873.873,0,0,1,.264-.415c.043-.179.206-.281.276-.441.057-.129.17-.219.228-.352a3.445,3.445,0,0,1,.222-.317,2.233,2.233,0,0,1,.241-.344c.208-.235.347-.521.57-.744a.29.29,0,0,0,.056-.117.2.2,0,0,1,.1-.117.361.361,0,0,0,.091-.088c.017-.019.019-.051.037-.07.228-.242.4-.529.637-.766.177-.177.323-.384.484-.576a1,1,0,0,1,.092-.092c.026-.025.067-.04.079-.068a1.745,1.745,0,0,1,.363-.443c.119-.14.258-.263.387-.394a.844.844,0,0,0,.112-.112,3.985,3.985,0,0,1,.526-.545c.073-.071.149-.144.218-.221a2.94,2.94,0,0,1,.3-.293c.178-.155.338-.33.506-.5a2.842,2.842,0,0,1,.46-.384,2.551,2.551,0,0,0,.315-.276,9.344,9.344,0,0,1,1.006-.835c.109-.15.293-.212.407-.366a1.2,1.2,0,0,1,.32-.218c.051-.034.1-.071.148-.106.107-.072.172-.2.319-.217.067-.124.21-.151.307-.239a1.252,1.252,0,0,1,.321-.223c.1-.048.193-.141.3-.2.128-.074.246-.165.37-.248.078-.052.117-.144.226-.17.086-.021.154-.107.236-.155s.173-.085.256-.132.144-.141.246-.19a6.757,6.757,0,0,0,.605-.37.549.549,0,0,1,.142-.064.252.252,0,0,0,.173-.11c0-.007.01-.018.017-.02a5.1,5.1,0,0,0,.57-.316c.08-.048.185-.053.24-.147a.066.066,0,0,1,.045-.026c.264-.043.455-.254.713-.315.048-.011.085-.061.13-.089a.419.419,0,0,1,.138-.07.526.526,0,0,0,.232-.108,2.4,2.4,0,0,1,.354-.169c.078-.037.153-.084.23-.124a.453.453,0,0,1,.141-.063.731.731,0,0,0,.24-.1c.139-.071.288-.121.434-.18a.769.769,0,0,0,.169-.073.482.482,0,0,1,.314-.114.1.1,0,0,0,.075-.02,1.153,1.153,0,0,1,.447-.2c.153-.063.3-.135.456-.2a.239.239,0,0,1,.1-.025.454.454,0,0,0,.311-.122.26.26,0,0,1,.14-.061.613.613,0,0,0,.347-.112.194.194,0,0,1,.1-.038c.2-.018.359-.145.56-.144a.31.31,0,0,0,.191-.081.4.4,0,0,1,.293-.093.31.31,0,0,0,.155-.023,3.159,3.159,0,0,1,.6-.208.768.768,0,0,1,.18-.037.717.717,0,0,0,.416-.146.268.268,0,0,1,.149-.04c.1-.008.194-.012.291-.011a.235.235,0,0,0,.21-.082.257.257,0,0,1,.218-.076c.363-.011.705-.143,1.063-.179a.114.114,0,0,0,.051-.01,1,1,0,0,1,.559-.112,1.126,1.126,0,0,0,.484-.119.484.484,0,0,1,.228-.048,4.214,4.214,0,0,0,.708-.067c.312-.053.631-.069.947-.1a1.222,1.222,0,0,0,.464-.088.518.518,0,0,1,.207-.028c.158,0,.317,0,.476,0a2.182,2.182,0,0,0,.553-.038.52.52,0,0,1,.131-.012l2.513-.034c.547-.006,1.093.026,1.638.071.237.019.477.007.715.012a.843.843,0,0,1,.437.074.547.547,0,0,0,.207.026c.35.036.7.055,1.051.11a4.746,4.746,0,0,0,.761.07.4.4,0,0,1,.2.037,1.057,1.057,0,0,0,.531.137,1.143,1.143,0,0,1,.485.091,1.705,1.705,0,0,0,.466.089,1.313,1.313,0,0,1,.259.047,1.19,1.19,0,0,0,.412.074.443.443,0,0,1,.25.073.6.6,0,0,0,.379.092.443.443,0,0,1,.3.077.379.379,0,0,0,.17.069,4.714,4.714,0,0,1,.563.136,1.167,1.167,0,0,1,.372.125.47.47,0,0,0,.229.048.46.46,0,0,1,.34.114.258.258,0,0,0,.167.065,1.729,1.729,0,0,1,.576.176.134.134,0,0,1,.047.025c.121.093.279.046.4.107a1.635,1.635,0,0,0,.353.167,4.183,4.183,0,0,1,.516.194c.074.027.148.049.224.075a.37.37,0,0,1,.121.043.618.618,0,0,0,.361.148.174.174,0,0,1,.1.037,2.3,2.3,0,0,0,.55.247.585.585,0,0,1,.119.054.515.515,0,0,0,.311.128.22.22,0,0,1,.094.04c.147.078.292.162.443.232a.441.441,0,0,1,.2.118c.039.055.1.052.168.062a.249.249,0,0,1,.144.049,1.656,1.656,0,0,0,.452.25,1,1,0,0,0,.405.179c.027,0,.05.044.076.067s.049.063.078.066a1.021,1.021,0,0,1,.324.168c.109.056.226.1.327.163a1.027,1.027,0,0,0,.318.174c.167.173.428.208.587.392.2.076.347.232.536.32a.35.35,0,0,1,.165.123c.009.015.025.035.038.036.148,0,.222.13.329.2a2.88,2.88,0,0,0,.326.221c.3.14.523.38.808.537a2.727,2.727,0,0,0,.475.365,2.366,2.366,0,0,0,.4.288,1.44,1.44,0,0,1,.279.23c.248.209.486.432.747.623.178.129.32.292.494.422s.313.282.478.414a3.037,3.037,0,0,1,.527.505,2.865,2.865,0,0,0,.237.2c.157.161.329.307.474.483a2.268,2.268,0,0,0,.211.186c.213.195.382.43.593.626.063.058.1.146.193.175a.136.136,0,0,1,.056.051c.218.333.513.6.758.912.22.278.465.537.673.827a4.427,4.427,0,0,0,.35.389c.012.013.035.022.038.035a.7.7,0,0,0,.208.3,2.707,2.707,0,0,1,.212.294c.221.31.445.618.659.934a2.445,2.445,0,0,1,.238.336,1.957,1.957,0,0,0,.238.345.561.561,0,0,1,.055.119c.011.024.015.062.032.07.146.066.172.217.238.335s.178.2.2.336a.056.056,0,0,0,.012.023,1.207,1.207,0,0,1,.251.395,2.536,2.536,0,0,0,.234.412,1.95,1.95,0,0,1,.214.412c.046.087-.008.152-.109.157a.236.236,0,0,1-.237-.127c-.113-.185-.252-.354-.378-.531-.148-.206-.292-.413-.439-.62a5.015,5.015,0,0,0-.4-.507c-.025-.026-.044-.055-.066-.082-.189-.242-.378-.482-.566-.724-.142-.078-.186-.249-.327-.334-.062-.037-.089-.129-.14-.188a11.443,11.443,0,0,1-.916-1.008c-.12-.15-.3-.252-.376-.438-.011-.026-.057-.037-.086-.056a1.779,1.779,0,0,1-.349-.35c-.018-.029-.034-.07-.061-.081-.173-.068-.261-.234-.395-.345a1.68,1.68,0,0,1-.378-.361.538.538,0,0,0-.114-.109c-.225-.192-.444-.391-.673-.575-.34-.275-.665-.567-1.011-.835a2.715,2.715,0,0,1-.369-.295c-.073-.079-.209-.086-.279-.188-.2-.079-.3-.291-.517-.35a.624.624,0,0,1-.223-.176c-.16-.153-.378-.225-.533-.382a.452.452,0,0,0-.112-.068c-.032-.016-.081-.017-.1-.042-.122-.189-.339-.243-.515-.344a2.9,2.9,0,0,0-.47-.282,1.352,1.352,0,0,1-.259-.177.358.358,0,0,0-.137-.073c-.085-.013-.137-.076-.206-.108a3.6,3.6,0,0,0-.724-.367.173.173,0,0,1-.07-.036,3.038,3.038,0,0,0-.808-.422.415.415,0,0,1-.115-.059.377.377,0,0,0-.258-.118.227.227,0,0,1-.1-.035c-.14-.074-.277-.151-.416-.227-.069-.037-.139-.072-.209-.108a.356.356,0,0,0-.092-.049,9.021,9.021,0,0,1-.856-.324,1.313,1.313,0,0,1-.168-.073c-.04-.019-.075-.043-.114-.063-.118-.062-.268,0-.377-.1a.808.808,0,0,0-.366-.138c-.161-.046-.317-.1-.474-.164a.958.958,0,0,0-.38-.1.217.217,0,0,1-.143-.052.511.511,0,0,0-.29-.117.762.762,0,0,1-.3-.09.431.431,0,0,0-.151-.043,1.573,1.573,0,0,1-.409-.108.63.63,0,0,0-.2-.044.467.467,0,0,1-.247-.077.732.732,0,0,0-.405-.1.824.824,0,0,1-.481-.108.144.144,0,0,0-.051-.015c-.312-.055-.624-.114-.938-.159a3.239,3.239,0,0,1-.463-.092,3.124,3.124,0,0,0-.573-.09c-.114-.011-.229,0-.344,0a.379.379,0,0,1-.156-.019,1.976,1.976,0,0,0-.825-.144c-.237-.016-.476-.016-.713-.027a1.3,1.3,0,0,1-.494-.072.553.553,0,0,0-.209-.017q-1.112,0-2.223-.005c-.37,0-.74,0-1.112,0a.743.743,0,0,0-.333.058.809.809,0,0,1-.285.039c-.343.021-.687.037-1.03.058a.689.689,0,0,0-.33.081.39.39,0,0,1-.178.039c-.132.007-.265.009-.4.007a1.877,1.877,0,0,0-.721.135.519.519,0,0,1-.206.04,1.965,1.965,0,0,0-.494.072c-.128.032-.261.04-.391.064a1,1,0,0,0-.377.112.468.468,0,0,1-.23.037.652.652,0,0,0-.447.123.4.4,0,0,1-.226.056,3.1,3.1,0,0,0-.815.205,1.021,1.021,0,0,1-.331.079.409.409,0,0,0-.27.091.38.38,0,0,1-.268.092.265.265,0,0,0-.154.018c-.176.137-.407.113-.593.216a.884.884,0,0,1-.177.048c-.059.017-.134.023-.17.063a.4.4,0,0,1-.335.119.159.159,0,0,0-.1.028,1.351,1.351,0,0,1-.377.181.646.646,0,0,1-.2.07c-.142.01-.23.131-.356.162a.689.689,0,0,0-.331.145.786.786,0,0,1-.289.118.752.752,0,0,0-.329.161.146.146,0,0,1-.069.037,3.828,3.828,0,0,0-.827.394c-.056.023-.108.053-.162.08s-.109.051-.162.082c-.029.018-.051.06-.081.065-.19.029-.322.174-.495.241-.109.042-.24.071-.293.206-.007.019-.04.034-.065.038a2.228,2.228,0,0,0-.649.337c-.09.05-.161.135-.269.156a2.319,2.319,0,0,1-.546.363,7.523,7.523,0,0,1-.822.547c-.2.219-.491.333-.694.553a.559.559,0,0,1-.1.076c-.03.018-.076.024-.09.05-.092.16-.27.218-.394.34-.084.082-.193.143-.282.226s-.221.174-.327.267c-.159.138-.313.281-.469.423-.075.069-.18.09-.239.2-.046.083-.15.137-.207.228-.027.041-.084.062-.127.093-.028.02-.066.034-.082.061a3.812,3.812,0,0,1-.511.551c-.143.149-.285.3-.439.439a1.362,1.362,0,0,0-.235.268c-.062.092-.174.15-.243.239-.2.263-.448.489-.627.772-.046.071-.127.12-.172.192a.844.844,0,0,1-.143.184c-.063.058-.092.152-.153.213a8.344,8.344,0,0,0-.557.728c-.173.22-.311.467-.481.69a1.664,1.664,0,0,1-.293.461C506.564,404.558,506.489,404.73,506.393,404.913Z" fill="#002e52" fill-rule="evenodd"/><path d="M507,403.7c.007-.1.013-.179.02-.276a.68.68,0,0,0,.214-.3.427.427,0,0,1,.172-.225.784.784,0,0,0,.2-.272,1.233,1.233,0,0,1,.362-.449c.032-.021.047-.07.067-.108a1.8,1.8,0,0,1,.246-.344c.137-.148.252-.316.381-.471.187-.225.379-.444.58-.655s.378-.418.573-.621a6.02,6.02,0,0,1,.495-.477c.109-.091.175-.213.289-.3a.887.887,0,0,0,.3-.294.113.113,0,0,1,.057-.053.632.632,0,0,0,.307-.279,2.026,2.026,0,0,1,.369-.33c.134-.129.288-.235.426-.359a1.45,1.45,0,0,1,.272-.208c.031-.017.074-.033.085-.061.058-.153.211-.171.327-.242a.934.934,0,0,0,.17-.121,1.817,1.817,0,0,1,.6-.457c.03-.013.051-.048.079-.069a.788.788,0,0,1,.167-.129,3,3,0,0,0,.489-.347c.042-.03.089-.055.133-.084l.3-.21a.3.3,0,0,1,.087-.057.307.307,0,0,0,.2-.122.157.157,0,0,1,.087-.054.633.633,0,0,0,.252-.143.587.587,0,0,1,.294-.169.036.036,0,0,0,.024-.011c.178-.2.47-.2.652-.389.027-.029.078-.035.119-.051s.075-.012.1-.033a4.575,4.575,0,0,1,.666-.373,1.306,1.306,0,0,1,.143-.06c.046-.023.1-.041.13-.079a.237.237,0,0,1,.2-.106.337.337,0,0,0,.149-.046.728.728,0,0,1,.436-.146c.088-.065.17-.132.258-.189a.939.939,0,0,1,.168-.074c.032-.012.078,0,.1-.023.189-.167.447-.161.658-.273.062-.034.126-.062.19-.094a.444.444,0,0,1,.117-.059.511.511,0,0,0,.376-.168.122.122,0,0,1,.074-.026,2.145,2.145,0,0,0,.75-.247.774.774,0,0,1,.178-.042.714.714,0,0,0,.368-.134.3.3,0,0,1,.173-.046.491.491,0,0,0,.275-.081.5.5,0,0,1,.2-.071.77.77,0,0,0,.405-.109.159.159,0,0,1,.1-.016.584.584,0,0,0,.374-.115.372.372,0,0,1,.247-.073,1.041,1.041,0,0,0,.543-.1.419.419,0,0,1,.126-.039c.332-.055.664-.11,1-.158a.756.756,0,0,0,.35-.109.327.327,0,0,1,.174-.048c.124-.006.248,0,.372,0a.815.815,0,0,0,.436-.1.516.516,0,0,1,.254-.065c.106,0,.212-.008.319-.01a4.959,4.959,0,0,0,.9-.074,1.882,1.882,0,0,1,.292-.026c.441-.024.883-.051,1.328-.065.282-.01.563.015.848-.02a4.376,4.376,0,0,1,.637,0c.116,0,.232.02.346.016.675-.026,1.346.061,2.021.065a.926.926,0,0,1,.236.032,2.117,2.117,0,0,0,.634.06,1.449,1.449,0,0,1,.572.086,2.305,2.305,0,0,0,.573.1c.115.012.232,0,.347,0a.488.488,0,0,1,.279.069.772.772,0,0,0,.408.107,1.051,1.051,0,0,1,.466.086.154.154,0,0,0,.077.019,1.151,1.151,0,0,1,.538.123,1.066,1.066,0,0,0,.392.054.4.4,0,0,1,.3.089.469.469,0,0,0,.3.1.693.693,0,0,1,.252.067c.138.058.289.081.432.129a1,1,0,0,0,.412.083.232.232,0,0,1,.212.087.236.236,0,0,0,.186.09.877.877,0,0,1,.325.1c.192.082.4.128.6.192a.9.9,0,0,1,.139.068c.063.032.123.092.187.094a1.885,1.885,0,0,1,.594.209c.051.017.1.063.146.063a.892.892,0,0,1,.5.228.937.937,0,0,0,.237.113c.15.048.3.1.451.154a.467.467,0,0,1,.159.088.354.354,0,0,0,.214.092c.043.005.107.014.121.041.085.168.266.162.4.231a2.744,2.744,0,0,1,.526.295.131.131,0,0,0,.044.028,2.068,2.068,0,0,1,.517.264c.2.1.377.223.568.33a3.214,3.214,0,0,0,.415.23,1.117,1.117,0,0,1,.308.2,2.1,2.1,0,0,0,.308.2,1.556,1.556,0,0,0,.43.25c.049.126.189.147.274.233a.959.959,0,0,0,.239.164c.085.042.193.044.212.168,0,.019.036.043.06.048a.814.814,0,0,1,.29.182,2.821,2.821,0,0,1,.35.275,1.6,1.6,0,0,0,.358.267,4.593,4.593,0,0,1,.395.31,2.072,2.072,0,0,0,.508.374c.083.185.3.243.388.425a.263.263,0,0,0,.155.137.835.835,0,0,1,.258.184c.24.22.487.436.728.655a.484.484,0,0,1,.085.1,1.546,1.546,0,0,0,.451.4,1.16,1.16,0,0,0,.389.426,1.142,1.142,0,0,1,.349.424.339.339,0,0,0,.2.2.244.244,0,0,1,.122.1,3.215,3.215,0,0,0,.39.465c.151.179.3.364.461.537.2.212.353.46.56.666.073.193.282.292.343.495a.358.358,0,0,0,.08.1,2.257,2.257,0,0,1,.247.311,4.9,4.9,0,0,0,.375.513c.119.164.221.34.336.508.048.073.081.16.167.2a.111.111,0,0,1,.048.06,3.218,3.218,0,0,0,.447.716c.067.091.082.207.171.294a1.179,1.179,0,0,1,.162.3.7.7,0,0,0,.1.156.258.258,0,0,1,.073.165c0,.04.016.1.043.116.111.052.133.154.176.252a2.882,2.882,0,0,0,.17.3.442.442,0,0,1,.071.138.435.435,0,0,0,.119.232.189.189,0,0,1,.055.089,1.17,1.17,0,0,0,.177.355.843.843,0,0,1,.129.288.187.187,0,0,0,.061.114.36.36,0,0,1,.114.261.171.171,0,0,0,.025.074,5.994,5.994,0,0,1,.3.648,1.22,1.22,0,0,1,.159.471.2.2,0,0,0,.025.076,3.781,3.781,0,0,1,.261.713.844.844,0,0,0,.069.172.445.445,0,0,1,.083.3.963.963,0,0,0,.133.426.4.4,0,0,1,.049.12c.014.287.159.544.186.828a.881.881,0,0,1,.1.457.379.379,0,0,0,.088.218.379.379,0,0,1,.09.295,1.261,1.261,0,0,0,.078.52c.043.144.063.294.1.441s.072.272.094.411.014.265.039.4a.758.758,0,0,0,.119.35.291.291,0,0,1,.034.151,1.6,1.6,0,0,1,0,.24,2.474,2.474,0,0,0,.131.886,1.206,1.206,0,0,1,.033.262c.007.159.006.319.011.478a.981.981,0,0,0,.025.211,2.767,2.767,0,0,1,.076.659c.007.213.007.426.009.638a2.28,2.28,0,0,0,.049.582.964.964,0,0,1,.015.264c0,.736,0,1.475-.007,2.211,0,.105-.02.21-.03.316s-.023.194-.025.291c-.006.275-.006.55-.013.825a1.283,1.283,0,0,1-.068.469,1.034,1.034,0,0,0-.033.341c0,.143,0,.283,0,.426a1.7,1.7,0,0,1-.091.626,1.75,1.75,0,0,0-.077.709.781.781,0,0,1-.084.407,1.029,1.029,0,0,0-.1.518.976.976,0,0,1-.087.492.488.488,0,0,0-.034.207,1.155,1.155,0,0,1-.094.439.726.726,0,0,0-.062.364.4.4,0,0,1-.069.275.751.751,0,0,0-.117.4.692.692,0,0,1-.074.332.919.919,0,0,0-.082.3.806.806,0,0,1-.109.35.36.36,0,0,0-.016.179.411.411,0,0,1-.106.344.273.273,0,0,0-.071.164,1.276,1.276,0,0,1-.095.352,5.028,5.028,0,0,0-.191.69.372.372,0,0,1-.071.194.409.409,0,0,0-.11.294.371.371,0,0,1-.09.242.579.579,0,0,0-.09.187c-.049.152-.089.307-.133.46a.1.1,0,0,1-.02.048.362.362,0,0,0-.133.355.214.214,0,0,1-.081.159.351.351,0,0,0-.09.155,2.274,2.274,0,0,1-.224.536.377.377,0,0,0-.06.145c0,.131-.007.248-.146.312a.085.085,0,0,0-.033.069c.007.126-.077.21-.131.312a1.11,1.11,0,0,0-.166.416.161.161,0,0,1-.044.094,1.743,1.743,0,0,0-.307.548c-.04.089-.07.182-.111.27a.575.575,0,0,1-.078.1c-.021.027-.065.052-.064.079,0,.187-.145.294-.217.439-.047.1-.133.169-.135.287a.135.135,0,0,1-.055.085.243.243,0,0,0-.09.156.165.165,0,0,1-.037.1c-.174.172-.229.419-.382.6a.729.729,0,0,0-.073.242l-.1.047c-.093.152-.168.294-.26.422a1.178,1.178,0,0,1-.21.3c-.04.034-.027.134-.068.164-.183.141-.207.392-.383.532a2.2,2.2,0,0,1-.343.5c-.109.125-.153.293-.288.4s-.167.288-.3.4c-.055.047-.06.152-.116.2a1.515,1.515,0,0,0-.138.152,6.273,6.273,0,0,1-.553.676.633.633,0,0,0-.115.145.436.436,0,0,1-.15.183.1.1,0,0,0-.052.056c-.056.168-.206.26-.3.393s-.23.246-.341.372-.209.253-.318.377a1.68,1.68,0,0,1-.293.3,2.05,2.05,0,0,0-.284.306c-.1.1-.183.215-.281.317-.06.062-.139.107-.2.168-.168.159-.33.322-.495.48-.127.124-.267.237-.382.368a7.223,7.223,0,0,0-.583.564.276.276,0,0,1-.083.063.759.759,0,0,0-.28.237c-.052.087-.192.092-.239.2-.164.073-.249.251-.416.321-.022.011-.053.033-.054.052-.009.1-.1.11-.165.153-.09.064-.227.072-.246.216a3.1,3.1,0,0,1-.3.21,1.082,1.082,0,0,0-.19.14c-.131.116-.27.224-.412.329-.214.155-.431.3-.645.457a.228.228,0,0,0-.075.069c-.033.077-.1.094-.166.119a1.349,1.349,0,0,0-.217.1.436.436,0,0,0-.091.086c-.023.025-.039.062-.067.078-.21.144-.425.283-.64.42-.036.025-.081.032-.12.054a1.589,1.589,0,0,0-.151.1c-.028.021-.046.058-.077.071a4.432,4.432,0,0,0-.715.433.764.764,0,0,1-.121.053c-.04.016-.1.021-.118.053-.084.132-.235.149-.354.218-.062.035-.133.051-.166.122,0,.006-.01.017-.018.019a1.561,1.561,0,0,0-.248.08c-.069.034-.118.127-.185.137a1.091,1.091,0,0,0-.336.152,3.008,3.008,0,0,1-.331.166c-.077.026-.132.112-.208.147s-.153.022-.223.074a2.579,2.579,0,0,1-.3.173.4.4,0,0,1-.151.044.2.2,0,0,0-.192.118.113.113,0,0,1-.083.055,1.618,1.618,0,0,0-.623.271.217.217,0,0,1-.037.009.323.323,0,0,1-.081-.05c-.126-.124-.113-.169.062-.226a.4.4,0,0,0,.166-.075,4.837,4.837,0,0,1,.622-.387c.193-.141.388-.279.592-.4a7.5,7.5,0,0,0,.754-.523c.159-.125.342-.209.5-.339.06-.051.125-.1.184-.147a.736.736,0,0,1,.234-.173.793.793,0,0,0,.164-.132.684.684,0,0,1,.141-.114.187.187,0,0,0,.124-.125.134.134,0,0,1,.051-.058c.111-.071.228-.133.332-.212s.21-.186.318-.275c.143-.118.29-.234.433-.35a.717.717,0,0,0,.1-.09c.175-.223.408-.386.6-.592a1.8,1.8,0,0,1,.275-.231c.146-.1.232-.262.369-.369.028-.111.155-.107.215-.188s.121-.2.237-.242c.076-.154.263-.2.334-.362.14-.06.17-.218.281-.309a2.333,2.333,0,0,0,.289-.341.653.653,0,0,1,.079-.069c.028-.022.072-.036.084-.062.094-.219.312-.327.44-.513.024-.036.052-.071.074-.11a1.363,1.363,0,0,1,.339-.4.814.814,0,0,0,.167-.232c.054-.077.161-.115.215-.192a2.548,2.548,0,0,0,.19-.349.4.4,0,0,1,.128-.16.739.739,0,0,0,.144-.184c.073-.1.138-.2.219-.294a1.425,1.425,0,0,0,.186-.285,3.2,3.2,0,0,1,.289-.4.906.906,0,0,0,.125-.17c.045-.1.05-.227.189-.262.02-.006.031-.041.043-.065.068-.114.129-.231.2-.344.1-.163.214-.32.316-.485.076-.118.139-.244.21-.367.026-.046.058-.087.085-.131s.062-.105.089-.16.027-.111.063-.142a1.315,1.315,0,0,0,.215-.364c.049-.08.061-.183.15-.24a.049.049,0,0,0,.019-.019c0-.189.168-.3.227-.466a3.858,3.858,0,0,1,.284-.568,1.089,1.089,0,0,0,.184-.431c0-.039.049-.074.068-.114a1.2,1.2,0,0,0,.191-.49.139.139,0,0,1,.081-.128.185.185,0,0,0,.1-.176.432.432,0,0,1,.081-.218,1.412,1.412,0,0,0,.211-.539.388.388,0,0,1,.08-.193.318.318,0,0,0,.08-.162.458.458,0,0,1,.142-.33.253.253,0,0,0,.046-.123,3.012,3.012,0,0,1,.248-.724c.044-.089.018-.212.051-.311s.134-.176.151-.274a7.165,7.165,0,0,1,.273-.91.371.371,0,0,0,.026-.129.562.562,0,0,1,.134-.44.384.384,0,0,0,.047-.228.582.582,0,0,1,.085-.353.63.63,0,0,0,.058-.2c.044-.172.09-.342.126-.515a1.111,1.111,0,0,0,.018-.237.562.562,0,0,1,.09-.352.589.589,0,0,0,.092-.382,1.245,1.245,0,0,1,.086-.569,1.829,1.829,0,0,0,.089-.521,1.76,1.76,0,0,1,.075-.524.7.7,0,0,0,.029-.235c.005-.08,0-.16,0-.239a1.459,1.459,0,0,1,.092-.625,6.674,6.674,0,0,0,.092-.845q-.01-.972-.01-1.944c0-.825.006-1.651.005-2.476a2.969,2.969,0,0,0-.137-.887.71.71,0,0,1-.027-.182c-.008-.143-.012-.285-.017-.428a.878.878,0,0,0-.077-.463.558.558,0,0,1-.023-.209q-.03-.264-.063-.527a.2.2,0,0,0-.024-.1.673.673,0,0,1-.1-.484.813.813,0,0,0-.077-.36.654.654,0,0,1-.076-.224,6.81,6.81,0,0,0-.193-.961.116.116,0,0,0,0-.026,1.1,1.1,0,0,1-.127-.531.2.2,0,0,0-.07-.139.321.321,0,0,1-.1-.29.56.56,0,0,0-.059-.281c-.077-.179-.138-.362-.2-.546a.338.338,0,0,1-.017-.105.388.388,0,0,0-.127-.334.25.25,0,0,1-.056-.168.84.84,0,0,0-.1-.327c-.07-.15-.119-.31-.174-.466-.013-.033,0-.076-.021-.1a2.373,2.373,0,0,1-.236-.55c-.045-.133-.124-.254-.174-.387a1,1,0,0,0-.179-.352c-.026-.028-.028-.082-.04-.123a.372.372,0,0,0-.043-.124.621.621,0,0,1-.159-.352.911.911,0,0,0-.158-.3c-.013-.022-.041-.038-.049-.062a1.975,1.975,0,0,0-.095-.271c-.046-.081-.142-.131-.143-.245a.231.231,0,0,0-.055-.116c-.152-.185-.208-.431-.383-.6-.022-.022-.016-.068-.029-.1a1.278,1.278,0,0,0-.19-.373c-.061-.073-.085-.175-.145-.249s-.1-.151-.148-.212c-.154-.177-.223-.4-.359-.587a1.257,1.257,0,0,1-.28-.441.1.1,0,0,0-.026-.045c-.308-.332-.492-.756-.81-1.08-.085-.207-.292-.329-.377-.539a.845.845,0,0,0-.162-.205l-.4-.454a1.592,1.592,0,0,1-.168-.2c-.1-.165-.264-.284-.35-.458-.008-.016-.018-.04-.03-.042-.12-.024-.14-.152-.219-.209a1.033,1.033,0,0,1-.207-.238c-.066-.083-.207-.08-.229-.207a.482.482,0,0,1-.169-.2c-.029-.043-.071-.1-.114-.106-.1-.02-.121-.128-.194-.168a.352.352,0,0,1-.158-.17.143.143,0,0,0-.036-.038,1.925,1.925,0,0,0-.36-.308,1.7,1.7,0,0,0-.307-.363.458.458,0,0,0-.109-.068c-.03-.02-.066-.035-.081-.062a1.156,1.156,0,0,0-.351-.352c-.118-.086-.182-.243-.343-.273-.095-.121-.248-.175-.35-.278-.18-.183-.4-.316-.569-.509-.012-.013-.022-.031-.037-.038a.874.874,0,0,1-.283-.22c-.082-.087-.209-.131-.3-.214s-.255-.058-.288-.212c-.089-.07-.208-.1-.283-.188-.016-.018-.049-.024-.069-.04-.113-.1-.28-.117-.359-.261-.148,0-.212-.143-.325-.2a1.435,1.435,0,0,1-.2-.128,1.152,1.152,0,0,0-.292-.181c-.1-.036-.174-.14-.288-.18a1.091,1.091,0,0,1-.25-.15.5.5,0,0,0-.233-.121.073.073,0,0,1-.049-.019c-.116-.159-.315-.186-.465-.291a2.573,2.573,0,0,0-.307-.151,1.223,1.223,0,0,1-.133-.082c-.036-.025-.067-.072-.1-.078a1.876,1.876,0,0,1-.513-.254.413.413,0,0,0-.122-.046.3.3,0,0,1-.186-.093.322.322,0,0,0-.187-.093.482.482,0,0,1-.145-.055c-.144-.069-.281-.149-.429-.207-.1-.038-.2-.049-.271-.149-.026-.037-.11-.043-.168-.047-.108-.007-.215,0-.271-.124a.136.136,0,0,0-.086-.053,2.4,2.4,0,0,1-.641-.242.371.371,0,0,0-.152-.041.325.325,0,0,1-.258-.115.164.164,0,0,0-.114-.06c-.253.012-.446-.158-.674-.22a1.331,1.331,0,0,0-.36-.072c-.092,0-.176-.006-.227-.1-.038-.07-.118-.076-.189-.077a.688.688,0,0,1-.4-.1.684.684,0,0,0-.253-.073.805.805,0,0,1-.276-.082.429.429,0,0,0-.208-.027.623.623,0,0,1-.353-.092.628.628,0,0,0-.383-.09.67.67,0,0,1-.327-.08,1.721,1.721,0,0,0-.41-.1c-.12-.025-.242-.042-.364-.063-.07-.012-.139-.029-.209-.036a.722.722,0,0,1-.334-.073.335.335,0,0,0-.131-.02.513.513,0,0,1-.131-.01,2.4,2.4,0,0,0-.843-.079.571.571,0,0,1-.381-.083.09.09,0,0,0-.05-.015,8.886,8.886,0,0,0-.953-.093c-.335,0-.673-.011-1.009-.032a.984.984,0,0,0-.39,0,.256.256,0,0,1-.157-.01,1.071,1.071,0,0,0-.42-.046l-1.118,0a1.45,1.45,0,0,0-.339.047,2.8,2.8,0,0,1-.527.05c-.256.012-.514.015-.77.026a1.384,1.384,0,0,0-.665.143.29.29,0,0,1-.13.017,1.894,1.894,0,0,1-.213,0,2.16,2.16,0,0,0-.809.122,1.221,1.221,0,0,1-.207.04,1.476,1.476,0,0,0-.52.09.574.574,0,0,1-.21.02.915.915,0,0,0-.434.111.564.564,0,0,1-.331.077.58.58,0,0,0-.423.118.352.352,0,0,1-.2.059.917.917,0,0,0-.362.072.879.879,0,0,1-.181.037,1.79,1.79,0,0,0-.179.044,1.392,1.392,0,0,1-.527.15c-.06,0-.128.057-.183.1a.263.263,0,0,1-.167.07c-.239-.005-.432.15-.658.188a.35.35,0,0,1-.269.092.088.088,0,0,0-.052.008,3.486,3.486,0,0,1-.549.237c-.159.078-.326.134-.487.2a.6.6,0,0,0-.274.146.086.086,0,0,1-.045.028.82.82,0,0,0-.409.165,1.442,1.442,0,0,1-.393.151,1.057,1.057,0,0,0-.135.082.589.589,0,0,1-.162.082.271.271,0,0,0-.2.113.24.24,0,0,1-.112.063c-.162.07-.326.134-.487.206a.553.553,0,0,0-.174.12.492.492,0,0,1-.287.167.528.528,0,0,0-.22.141.838.838,0,0,1-.225.134c-.076.032-.13.111-.2.154s-.163.038-.217.087a1.506,1.506,0,0,1-.379.241,1.056,1.056,0,0,0-.32.224,1.112,1.112,0,0,1-.235.168c-.073.046-.162.075-.206.161-.008.015-.022.036-.035.037-.161.021-.224.192-.37.24a.3.3,0,0,0-.125.1,1.609,1.609,0,0,1-.45.358.494.494,0,0,0-.163.133c-.073.111-.235.129-.274.271-.234.064-.326.32-.547.4a.213.213,0,0,0-.081.066c-.227.292-.5.537-.754.808-.171.185-.367.347-.551.52a.863.863,0,0,0-.077.1.56.56,0,0,1-.1.125c-.142.1-.19.277-.338.367-.1.187-.279.315-.383.5-.016.031-.047.055-.06.087-.042.1-.073.2-.194.231l-.263.365c-.046.064-.093.127-.138.192-.035.049-.071.1-.105.151s-.087.132-.131.2a.81.81,0,0,0-.091.131,3.017,3.017,0,0,1-.356.582,1.179,1.179,0,0,0-.148.281.571.571,0,0,1-.114.2.634.634,0,0,0-.071.14.466.466,0,0,1-.073.138.8.8,0,0,0-.192.345c-.063.192-.219.35-.21.569a.082.082,0,0,1-.038.065c-.126.046-.111.165-.151.26a2.192,2.192,0,0,1-.2.46.271.271,0,0,0-.057.145.479.479,0,0,1-.127.363.269.269,0,0,0-.064.17.924.924,0,0,1-.092.326,2.147,2.147,0,0,0-.186.714.386.386,0,0,1-.068.2.782.782,0,0,0-.12.455,1.022,1.022,0,0,1-.08.41,2.839,2.839,0,0,0-.1.573,1.427,1.427,0,0,1-.02.21,2.727,2.727,0,0,0-.08.843,4.048,4.048,0,0,0,0,.426,1.753,1.753,0,0,1-.115.6.1.1,0,0,1-.08.047.1.1,0,0,1-.061-.071c-.015-.274-.033-.548-.035-.824-.005-.621-.014-1.243,0-1.863a5.263,5.263,0,0,1,.1-1.03,3.112,3.112,0,0,0,.036-.663.492.492,0,0,1,.089-.324.481.481,0,0,0,.079-.3c0-.09,0-.179,0-.267a.339.339,0,0,1,.042-.149,1.047,1.047,0,0,0,.139-.507.52.52,0,0,1,.065-.254.369.369,0,0,0,.045-.15,1.249,1.249,0,0,1,.122-.431c.052-.1.028-.246.071-.359s.136-.188.149-.306a.744.744,0,0,1,.114-.349c.011-.215.174-.384.179-.6a.266.266,0,0,1,.055-.115c.027-.045.084-.082.09-.128a3.853,3.853,0,0,1,.27-.658c.016-.05.034-.1.049-.151.005-.016,0-.038.01-.052a1.853,1.853,0,0,0,.154-.241c.037-.086.026-.184.1-.267a1.014,1.014,0,0,0,.176-.325.472.472,0,0,1,.138-.249.1.1,0,0,0,.043-.064.609.609,0,0,1,.181-.344.6.6,0,0,0,.09-.162,3.021,3.021,0,0,1,.347-.588,1.4,1.4,0,0,0,.084-.164A.733.733,0,0,1,507,403.7Z" fill="#e50019" fill-rule="evenodd"/><path d="M23.94-17.045V-23.24H4.2v-3.29H27.72v9.485Zm6.02,2.135v3.29h-28v-3.29ZM23.975-5.5H7.945v5.04h16.03ZM4.2-8.715H27.72V2.8H4.2Zm47.46-13.02a3.531,3.531,0,0,0-1.1-2.642,3.707,3.707,0,0,0-2.678-1.067A3.707,3.707,0,0,0,45.2-24.378a3.531,3.531,0,0,0-1.1,2.642,3.531,3.531,0,0,0,1.1,2.643,3.707,3.707,0,0,0,2.678,1.067,3.707,3.707,0,0,0,2.678-1.067A3.531,3.531,0,0,0,51.66-21.735Zm3.745,0a6.154,6.154,0,0,1-.6,2.66A7.165,7.165,0,0,1,53.2-16.87a8.267,8.267,0,0,1-2.415,1.5,7.578,7.578,0,0,1-2.9.56,7.578,7.578,0,0,1-2.905-.56,8.267,8.267,0,0,1-2.415-1.5,7.165,7.165,0,0,1-1.61-2.205,6.154,6.154,0,0,1-.6-2.66,6.154,6.154,0,0,1,.6-2.66,7.165,7.165,0,0,1,1.61-2.2,8.267,8.267,0,0,1,2.415-1.5,7.578,7.578,0,0,1,2.905-.56,7.578,7.578,0,0,1,2.9.56A8.267,8.267,0,0,1,53.2-26.6a7.165,7.165,0,0,1,1.61,2.2A6.154,6.154,0,0,1,55.4-21.735ZM61.88-13.86v3.255H56.735V-7.7H52.99v-2.905H42.77V-7.7H39.025v-2.905H33.88V-13.86ZM51.66-2.24a3.531,3.531,0,0,0-1.1-2.643A3.707,3.707,0,0,0,47.88-5.95,3.707,3.707,0,0,0,45.2-4.883,3.531,3.531,0,0,0,44.1-2.24,3.531,3.531,0,0,0,45.2.4,3.707,3.707,0,0,0,47.88,1.47,3.707,3.707,0,0,0,50.558.4,3.531,3.531,0,0,0,51.66-2.24Zm3.745,0a6.154,6.154,0,0,1-.6,2.66,7.165,7.165,0,0,1-1.61,2.2A8.267,8.267,0,0,1,50.785,4.13a7.578,7.578,0,0,1-2.9.56,7.578,7.578,0,0,1-2.905-.56A8.267,8.267,0,0,1,42.56,2.625,7.165,7.165,0,0,1,40.95.42a6.154,6.154,0,0,1-.6-2.66,6.154,6.154,0,0,1,.6-2.66,7.165,7.165,0,0,1,1.61-2.2A8.267,8.267,0,0,1,44.975-8.61a7.578,7.578,0,0,1,2.905-.56,7.578,7.578,0,0,1,2.9.56A8.267,8.267,0,0,1,53.2-7.105a7.165,7.165,0,0,1,1.61,2.2A6.154,6.154,0,0,1,55.4-2.24ZM80.115-18.9a4.248,4.248,0,0,0-1.33-3.132A4.374,4.374,0,0,0,75.6-23.345a4.316,4.316,0,0,0-3.167,1.313A4.276,4.276,0,0,0,71.12-18.9a4.276,4.276,0,0,0,1.313,3.133A4.316,4.316,0,0,0,75.6-14.455a4.374,4.374,0,0,0,3.185-1.312A4.248,4.248,0,0,0,80.115-18.9Zm3.71,0a7,7,0,0,1-.647,2.975,7.835,7.835,0,0,1-1.767,2.45,8.457,8.457,0,0,1-2.625,1.662A8.368,8.368,0,0,1,75.6-11.2a8.368,8.368,0,0,1-3.185-.613,8.457,8.457,0,0,1-2.625-1.662,7.835,7.835,0,0,1-1.768-2.45,7,7,0,0,1-.647-2.975,7,7,0,0,1,.647-2.975,7.835,7.835,0,0,1,1.768-2.45,8.457,8.457,0,0,1,2.625-1.663A8.368,8.368,0,0,1,75.6-26.6a8.368,8.368,0,0,1,3.185.612,8.457,8.457,0,0,1,2.625,1.663,7.835,7.835,0,0,1,1.767,2.45A7,7,0,0,1,83.825-18.9Zm2.1,12.985h-8.4v8.26h-3.78v-8.26H65.66v-3.36H85.925ZM88.34-27.16h3.78V3.325H88.34Zm23.135,6.685A3.632,3.632,0,0,0,110.3-23.2a3.892,3.892,0,0,0-2.783-1.12,3.892,3.892,0,0,0-2.783,1.12,3.632,3.632,0,0,0-1.173,2.73,3.632,3.632,0,0,0,1.173,2.73,3.892,3.892,0,0,0,2.783,1.12,3.892,3.892,0,0,0,2.783-1.12A3.632,3.632,0,0,0,111.475-20.475Zm3.675,0a6.273,6.273,0,0,1-.612,2.747,7.8,7.8,0,0,1-1.628,2.258,8.205,8.205,0,0,1-2.433,1.505,7.8,7.8,0,0,1-2.957.56,7.8,7.8,0,0,1-2.958-.56,8.205,8.205,0,0,1-2.432-1.505,7.8,7.8,0,0,1-1.628-2.258,6.273,6.273,0,0,1-.613-2.747,6.273,6.273,0,0,1,.613-2.748,7.8,7.8,0,0,1,1.628-2.257,8.205,8.205,0,0,1,2.432-1.505,7.8,7.8,0,0,1,2.958-.56,7.8,7.8,0,0,1,2.957.56,8.205,8.205,0,0,1,2.433,1.505,7.8,7.8,0,0,1,1.628,2.257A6.273,6.273,0,0,1,115.15-20.475Zm2.695,11.62H109.76v4.62h-3.78v-4.62h-8.4V-12.18h20.265ZM120.26-27.16h3.78V-3.885h-3.78V-15.12h-4.235v-3.29h4.235ZM99.645,2.8V-5.915h3.78V-.49H124.39V2.8ZM137.41-24.115V-27.37h4.1v3.255h7.245v3.255H130.13v-3.255Zm5.845,10.64a3.508,3.508,0,0,0-1.1-2.59,3.675,3.675,0,0,0-2.677-1.085,3.617,3.617,0,0,0-2.66,1.085,3.535,3.535,0,0,0-1.085,2.59,3.535,3.535,0,0,0,1.085,2.59,3.617,3.617,0,0,0,2.66,1.085,3.675,3.675,0,0,0,2.677-1.085A3.508,3.508,0,0,0,143.255-13.475Zm3.675,0a6.31,6.31,0,0,1-.577,2.66,6.929,6.929,0,0,1-1.593,2.2,7.3,7.3,0,0,1-2.38,1.47,8.741,8.741,0,0,1-1.015.315v3.85h8.4V.35H129.5V-2.975h8.085v-3.85a8.741,8.741,0,0,1-1.015-.315,7.3,7.3,0,0,1-2.38-1.47,6.929,6.929,0,0,1-1.592-2.2,6.31,6.31,0,0,1-.577-2.66,6.31,6.31,0,0,1,.577-2.66,6.929,6.929,0,0,1,1.592-2.2,7.3,7.3,0,0,1,2.38-1.47,8.022,8.022,0,0,1,2.9-.525,8.022,8.022,0,0,1,2.9.525,7.3,7.3,0,0,1,2.38,1.47,6.929,6.929,0,0,1,1.593,2.2A6.31,6.31,0,0,1,146.93-13.475Zm5.25-13.685h3.78V3.325h-3.78Z" transform="translate(577 432)" fill="#3b3135"/></g></svg>