<svg xmlns="http://www.w3.org/2000/svg" xmlns:xlink="http://www.w3.org/1999/xlink" width="248" height="379" viewBox="0 0 248 379"><defs><filter id="a" x="0" y="0" width="248" height="379" filterUnits="userSpaceOnUse"><feOffset dy="3" input="SourceAlpha"/><feGaussianBlur stdDeviation="3" result="b"/><feFlood flood-opacity="0.161"/><feComposite operator="in" in2="b"/><feComposite in="SourceGraphic"/></filter></defs><g transform="translate(-75 -175)"><g transform="translate(-5 -156)"><g transform="matrix(1, 0, 0, 1, 80, 331)" filter="url(#a)"><rect width="230" height="361" rx="8" transform="translate(9 6)" fill="#fff"/></g><path d="M72.693,94.2a8,8,0,0,1,8-8h214a8,8,0,0,1,8,8V195.5l-230,83.713Z" transform="translate(16.307 250.8)" fill="#58adee"/><rect width="81" height="32" rx="8" transform="translate(103 538)" fill="#6772e5"/><rect width="81" height="32" rx="8" transform="translate(187 538)" fill="#aaa"/><rect width="58" height="23" rx="4" transform="translate(103 577)" fill="#24b47e"/><rect width="58" height="23" rx="4" transform="translate(165 577)" fill="#aaa"/><rect width="58" height="23" rx="4" transform="translate(227 577)" fill="#aaa"/></g><rect width="97" height="11" rx="4" transform="translate(97 468)" fill="#eee"/><rect width="169" height="11" rx="4" transform="translate(97 483)" fill="#eee"/><rect width="169" height="11" rx="4" transform="translate(97 498)" fill="#eee"/><g transform="translate(-187.527 193.789)"><path d="M505.859,393.072a12.009,12.009,0,1,0-17.87,10.476l.249-7.967a5.906,5.906,0,0,1,5.907-5.9h.335a4.652,4.652,0,0,1,4.652,4.652v9.514A12,12,0,0,0,505.859,393.072Z" transform="translate(-145.323 -143.154)" fill="#7852e8" opacity="0.6"/><path d="M421.642,442.477a4.652,4.652,0,0,0-4.652-4.652h-.335a5.906,5.906,0,0,0-5.907,5.9L410.5,451.7l-.553,17.552c-.126.541-.2,12.745-.2,12.745-1.032-1.052-2.18-2.255-3.212-3.406a17.325,17.325,0,0,0-9.777-4.833,4.872,4.872,0,0,0-3.521.627,7.316,7.316,0,0,0-.731.639c-1.518,1.5-2.664,3.911-1.6,5.681a6.072,6.072,0,0,0,2.082,1.825,14.627,14.627,0,0,1,4.38,3.289c2.351,3.008,7.795,9.731,11.141,13.321.7.433,2.169,1.9,2.865,2.275a26.037,26.037,0,0,1,4.434,3.306,25.422,25.422,0,0,0,14.232,4.689c4.689,0,8.949.281,12.1-2.489h.169l.083-.209a15.555,15.555,0,0,0,5.194-11.493V473.725c0-1.053-.232-4.583-3.2-5.643a5.253,5.253,0,0,0-3.925.181l-.269.012-.083.005a4.511,4.511,0,0,0-3.713-3.524,6.209,6.209,0,0,0-4.859.986,5.107,5.107,0,0,0-5.457-2.9,6.336,6.336,0,0,0-4.434,2.375V442.477Z" transform="translate(-67.833 -191.301)" fill="#616e7d"/><path d="M375.322,269.857l2.384,2.653a1.092,1.092,0,0,0,1.693-.074,37.976,37.976,0,0,0-30.873-60.125,39.3,39.3,0,0,0-4.337.241,37.98,37.98,0,0,0-26.538,59.884,1.1,1.1,0,0,0,1.7.077l2.38-2.65a1.086,1.086,0,0,0,.077-1.347,32.358,32.358,0,1,1,53.436-.005A1.087,1.087,0,0,0,375.322,269.857Z" fill="#7852e8" opacity="0.2"/><path d="M449.241,342.57l2.524,2.807a1.1,1.1,0,0,0,1.8-.243A22.525,22.525,0,0,0,456,334.913a22.869,22.869,0,1,0-45.738,0,22.546,22.546,0,0,0,2.43,10.221,1.1,1.1,0,0,0,1.8.243l2.521-2.807a1.093,1.093,0,0,0,.189-1.151,17.092,17.092,0,0,1-1.295-6.506,17.22,17.22,0,1,1,33.15,6.506A1.1,1.1,0,0,0,449.241,342.57Z" transform="translate(-84.6 -84.602)" fill="#7852e8" opacity="0.4"/></g></g></svg>