<svg xmlns="http://www.w3.org/2000/svg" width="156.54" height="134.58" viewBox="0 0 156.54 134.58"><g transform="translate(-987.9 -684.42)"><g transform="translate(1044 809)" fill="#6c5da9" opacity="0.999"><path d="M 38.32000350952148 4.999999046325684 L 33.32000350952148 4.999999046325684 L 11.90000152587891 4.999999046325684 L 6.900002002716064 4.999999046325684 L 6.900002002716064 -9.155273232863692e-07 L 6.900002002716064 -114.5800018310547 L 6.900002002716064 -119.5800018310547 L 11.90000152587891 -119.5800018310547 L 47.77000045776367 -119.5800018310547 C 54.74798202514648 -119.5800018310547 61.15888214111328 -118.6040420532227 66.82460021972656 -116.6792602539062 C 72.62138366699219 -114.7099380493164 77.77767944335938 -111.704704284668 82.15028381347656 -107.7470397949219 C 90.96868133544922 -99.76541900634766 95.44000244140625 -89.42398071289062 95.44000244140625 -77.01000213623047 C 95.44000244140625 -63.86642074584961 90.82096099853516 -53.23822021484375 81.711181640625 -45.42061996459961 C 77.24967956542969 -41.59197998046875 72.14262390136719 -38.68102264404297 66.53184509277344 -36.76860046386719 C 61.00570297241211 -34.88504028320312 54.86488342285156 -33.93000030517578 48.28000259399414 -33.93000030517578 L 38.32000350952148 -33.93000030517578 L 38.32000350952148 -9.155273232863692e-07 L 38.32000350952148 4.999999046325684 Z M 38.32000350952148 -61.27000045776367 L 45.3900032043457 -61.27000045776367 C 51.82810211181641 -61.27000045776367 56.54768371582031 -62.68238067626953 59.41762161254883 -65.46790313720703 C 62.28576278686523 -68.25167846679688 63.68000030517578 -72.02713775634766 63.68000030517578 -77.01000213623047 C 63.68000030517578 -81.83218383789062 62.31332015991211 -85.44248199462891 59.50188064575195 -88.04718017578125 C 56.62068176269531 -90.71653747558594 52.04436111450195 -92.06999969482422 45.90000152587891 -92.06999969482422 L 38.32000350952148 -92.06999969482422 L 38.32000350952148 -61.27000045776367 Z" stroke="none"/><path d="M 33.32000350952148 -9.155273232863692e-07 L 33.32000350952148 -38.93000030517578 L 48.28000259399414 -38.93000030517578 C 60.40667724609375 -38.93000030517578 70.46500396728516 -42.35832595825195 78.45500183105469 -49.21500015258789 C 86.44499969482422 -56.07167434692383 90.44000244140625 -65.33667755126953 90.44000244140625 -77.01000213623047 C 90.44000244140625 -88.00332641601562 86.55832672119141 -97.01332855224609 78.79499816894531 -104.0400009155273 C 71.03167724609375 -111.066650390625 60.69000244140625 -114.5800018310547 47.77000045776367 -114.5800018310547 L 11.90000152587891 -114.5800018310547 L 11.90000152587891 -9.155273232863692e-07 L 33.32000350952148 -9.155273232863692e-07 M 33.32000350952148 -97.06999969482422 L 45.90000152587891 -97.06999969482422 C 53.38000106811523 -97.06999969482422 59.04667663574219 -95.28500366210938 62.90000152587891 -91.71500396728516 C 66.75332641601562 -88.14500427246094 68.68000030517578 -83.24332427978516 68.68000030517578 -77.01000213623047 C 68.68000030517578 -70.66332244873047 66.75332641601562 -65.62000274658203 62.90000152587891 -61.88000106811523 C 59.04667663574219 -58.13999938964844 53.21000289916992 -56.27000045776367 45.3900032043457 -56.27000045776367 L 33.32000350952148 -56.27000045776367 L 33.32000350952148 -97.06999969482422 M 43.32000350952148 9.999999046325684 L 33.32000350952148 9.999999046325684 L 11.90000152587891 9.999999046325684 L 1.900002002716064 9.999999046325684 L 1.900002002716064 -9.155273232863692e-07 L 1.900002002716064 -114.5800018310547 L 1.900002002716064 -124.5800018310547 L 11.90000152587891 -124.5800018310547 L 47.77000045776367 -124.5800018310547 C 63.18662643432617 -124.5800018310547 75.88270568847656 -120.1638031005859 85.50555419921875 -111.4540786743164 C 95.41532897949219 -102.4846267700195 100.4400024414062 -90.89597320556641 100.4400024414062 -77.01000213623047 C 100.4400024414062 -62.3416748046875 95.2342529296875 -50.43685150146484 84.96735382080078 -41.62625122070312 C 75.15025329589844 -33.20162582397461 62.80685043334961 -28.93000030517578 48.28000259399414 -28.93000030517578 L 43.32000350952148 -28.93000030517578 L 43.32000350952148 -9.155273232863692e-07 L 43.32000350952148 9.999999046325684 Z M 43.32000350952148 -66.27000427246094 L 45.3900032043457 -66.27000427246094 C 48.89130020141602 -66.27000427246094 53.5629768371582 -66.75330352783203 55.93525314331055 -69.05580139160156 C 57.113525390625 -70.19942474365234 58.68000030517578 -72.26822662353516 58.68000030517578 -77.01000213623047 C 58.68000030517578 -81.47607421875 57.20970153808594 -83.35477447509766 56.10375213623047 -84.37940216064453 C 53.70345306396484 -86.60320281982422 49.23005294799805 -87.06999969482422 45.90000152587891 -87.06999969482422 L 43.32000350952148 -87.06999969482422 L 43.32000350952148 -66.27000427246094 Z" stroke="none" fill="#fff"/></g><g transform="translate(986 809)" fill="#6c5da9" opacity="0.999"><path d="M 38.32000350952148 4.999999046325684 L 33.32000350952148 4.999999046325684 L 11.90000152587891 4.999999046325684 L 6.900002002716064 4.999999046325684 L 6.900002002716064 -9.155273232863692e-07 L 6.900002002716064 -114.5800018310547 L 6.900002002716064 -119.5800018310547 L 11.90000152587891 -119.5800018310547 L 47.77000045776367 -119.5800018310547 C 54.74798202514648 -119.5800018310547 61.15888214111328 -118.6040420532227 66.82460021972656 -116.6792602539062 C 72.62138366699219 -114.7099380493164 77.77767944335938 -111.704704284668 82.15028381347656 -107.7470397949219 C 90.96868133544922 -99.76541900634766 95.44000244140625 -89.42398071289062 95.44000244140625 -77.01000213623047 C 95.44000244140625 -63.86642074584961 90.82096099853516 -53.23822021484375 81.711181640625 -45.42061996459961 C 77.24967956542969 -41.59197998046875 72.14262390136719 -38.68102264404297 66.53184509277344 -36.76860046386719 C 61.00570297241211 -34.88504028320312 54.86488342285156 -33.93000030517578 48.28000259399414 -33.93000030517578 L 38.32000350952148 -33.93000030517578 L 38.32000350952148 -9.155273232863692e-07 L 38.32000350952148 4.999999046325684 Z M 38.32000350952148 -61.27000045776367 L 45.3900032043457 -61.27000045776367 C 51.82810211181641 -61.27000045776367 56.54768371582031 -62.68238067626953 59.41762161254883 -65.46790313720703 C 62.28576278686523 -68.25167846679688 63.68000030517578 -72.02713775634766 63.68000030517578 -77.01000213623047 C 63.68000030517578 -81.83218383789062 62.31332015991211 -85.44248199462891 59.50188064575195 -88.04718017578125 C 56.62068176269531 -90.71653747558594 52.04436111450195 -92.06999969482422 45.90000152587891 -92.06999969482422 L 38.32000350952148 -92.06999969482422 L 38.32000350952148 -61.27000045776367 Z" stroke="none"/><path d="M 33.32000350952148 -9.155273232863692e-07 L 33.32000350952148 -38.93000030517578 L 48.28000259399414 -38.93000030517578 C 60.40667724609375 -38.93000030517578 70.46500396728516 -42.35832595825195 78.45500183105469 -49.21500015258789 C 86.44499969482422 -56.07167434692383 90.44000244140625 -65.33667755126953 90.44000244140625 -77.01000213623047 C 90.44000244140625 -88.00332641601562 86.55832672119141 -97.01332855224609 78.79499816894531 -104.0400009155273 C 71.03167724609375 -111.066650390625 60.69000244140625 -114.5800018310547 47.77000045776367 -114.5800018310547 L 11.90000152587891 -114.5800018310547 L 11.90000152587891 -9.155273232863692e-07 L 33.32000350952148 -9.155273232863692e-07 M 33.32000350952148 -97.06999969482422 L 45.90000152587891 -97.06999969482422 C 53.38000106811523 -97.06999969482422 59.04667663574219 -95.28500366210938 62.90000152587891 -91.71500396728516 C 66.75332641601562 -88.14500427246094 68.68000030517578 -83.24332427978516 68.68000030517578 -77.01000213623047 C 68.68000030517578 -70.66332244873047 66.75332641601562 -65.62000274658203 62.90000152587891 -61.88000106811523 C 59.04667663574219 -58.13999938964844 53.21000289916992 -56.27000045776367 45.3900032043457 -56.27000045776367 L 33.32000350952148 -56.27000045776367 L 33.32000350952148 -97.06999969482422 M 43.32000350952148 9.999999046325684 L 33.32000350952148 9.999999046325684 L 11.90000152587891 9.999999046325684 L 1.900002002716064 9.999999046325684 L 1.900002002716064 -9.155273232863692e-07 L 1.900002002716064 -114.5800018310547 L 1.900002002716064 -124.5800018310547 L 11.90000152587891 -124.5800018310547 L 47.77000045776367 -124.5800018310547 C 63.18662643432617 -124.5800018310547 75.88270568847656 -120.1638031005859 85.50555419921875 -111.4540786743164 C 95.41532897949219 -102.4846267700195 100.4400024414062 -90.89597320556641 100.4400024414062 -77.01000213623047 C 100.4400024414062 -62.3416748046875 95.2342529296875 -50.43685150146484 84.96735382080078 -41.62625122070312 C 75.15025329589844 -33.20162582397461 62.80685043334961 -28.93000030517578 48.28000259399414 -28.93000030517578 L 43.32000350952148 -28.93000030517578 L 43.32000350952148 -9.155273232863692e-07 L 43.32000350952148 9.999999046325684 Z M 43.32000350952148 -66.27000427246094 L 45.3900032043457 -66.27000427246094 C 48.89130020141602 -66.27000427246094 53.5629768371582 -66.75330352783203 55.93525314331055 -69.05580139160156 C 57.113525390625 -70.19942474365234 58.68000030517578 -72.26822662353516 58.68000030517578 -77.01000213623047 C 58.68000030517578 -81.47607421875 57.20970153808594 -83.35477447509766 56.10375213623047 -84.37940216064453 C 53.70345306396484 -86.60320281982422 49.23005294799805 -87.06999969482422 45.90000152587891 -87.06999969482422 L 43.32000350952148 -87.06999969482422 L 43.32000350952148 -66.27000427246094 Z" stroke="none" fill="#fff"/></g></g></svg>