<svg xmlns="http://www.w3.org/2000/svg" width="210" height="140" viewBox="0 0 210 140"><g transform="translate(-101 -218)"><rect width="210" height="140" transform="translate(101 218)" fill="#2d47a8"/><g transform="translate(36.68 -3.96)"><path d="M9.878-28.334q5.052,0,7.746,1.84a6.48,6.48,0,0,1,2.693,5.755,7.821,7.821,0,0,1-.719,3.5,6.043,6.043,0,0,1-2.091,2.376,9.7,9.7,0,0,1-3.346,1.355,21.111,21.111,0,0,1-4.517.435H7.536v8.164H3.32V-27.765a20.93,20.93,0,0,1,3.262-.452Q8.372-28.334,9.878-28.334Zm.3,3.647q-1.606,0-2.643.1v7.9H9.577a10.355,10.355,0,0,0,4.684-.853A3.3,3.3,0,0,0,15.9-20.772a3.829,3.829,0,0,0-.435-1.907,3.125,3.125,0,0,0-1.2-1.2,5.663,5.663,0,0,0-1.824-.619A13.135,13.135,0,0,0,10.179-24.687Zm22.284,5.922a12.906,12.906,0,0,0-1.389-.351,10.213,10.213,0,0,0-2.058-.184,8.14,8.14,0,0,0-1.422.134,8.547,8.547,0,0,0-1.054.234V-4.912H22.492V-21.575a22.255,22.255,0,0,1,2.928-.82,18.251,18.251,0,0,1,3.9-.385q.4,0,.937.05t1.071.134q.535.084,1.037.2t.8.217ZM38.586-4.912H34.537v-17.5h4.049Zm.435-22.618a2.321,2.321,0,0,1-.736,1.807,2.5,2.5,0,0,1-1.74.669,2.544,2.544,0,0,1-1.773-.669,2.321,2.321,0,0,1-.736-1.807,2.362,2.362,0,0,1,.736-1.84,2.544,2.544,0,0,1,1.773-.669,2.5,2.5,0,0,1,1.74.669A2.362,2.362,0,0,1,39.021-27.531ZM52.237-14.114a8.523,8.523,0,0,0-.686-3.965,2.674,2.674,0,0,0-2.56-1.221,11.943,11.943,0,0,0-1.472.1q-.8.1-1.2.167v14.12H42.266v-16.93a26.99,26.99,0,0,1,3.061-.636,25.414,25.414,0,0,1,4-.3,7.959,7.959,0,0,1,2.961.468,5.722,5.722,0,0,1,1.924,1.238,7.9,7.9,0,0,1,.937-.569,9.669,9.669,0,0,1,1.271-.552,11.6,11.6,0,0,1,1.489-.418,7.616,7.616,0,0,1,1.589-.167,8.341,8.341,0,0,1,3.363.586,4.94,4.94,0,0,1,2.074,1.639,6.37,6.37,0,0,1,1.037,2.543,17.418,17.418,0,0,1,.284,3.262v9.837H62.207v-9.2a8.709,8.709,0,0,0-.669-3.965A2.669,2.669,0,0,0,58.962-19.3a5.32,5.32,0,0,0-1.84.318,5.994,5.994,0,0,0-1.3.619,8.923,8.923,0,0,1,.368,1.773,18.884,18.884,0,0,1,.1,2.008v9.67H52.237Zm16.529.535a11,11,0,0,1,.686-4.049,8.5,8.5,0,0,1,1.824-2.894,7.548,7.548,0,0,1,2.61-1.74,8.082,8.082,0,0,1,3.011-.586A7.208,7.208,0,0,1,82.534-20.6q2.024,2.242,2.024,6.692,0,.335-.017.753t-.05.753H72.948a4.615,4.615,0,0,0,1.489,3.262,5.657,5.657,0,0,0,3.831,1.154,12.6,12.6,0,0,0,2.693-.268,11.092,11.092,0,0,0,1.924-.569l.535,3.312a6.477,6.477,0,0,1-.92.351,13,13,0,0,1-1.338.335q-.753.151-1.623.251a15.46,15.46,0,0,1-1.773.1,10.73,10.73,0,0,1-4.015-.686A7.476,7.476,0,0,1,70.94-7.071,7.816,7.816,0,0,1,69.3-9.948,11.749,11.749,0,0,1,68.765-13.578Zm11.744-1.807a5.32,5.32,0,0,0-.234-1.589,3.834,3.834,0,0,0-.686-1.3,3.244,3.244,0,0,0-1.1-.87,3.52,3.52,0,0,0-1.556-.318,3.622,3.622,0,0,0-1.639.351,3.737,3.737,0,0,0-1.188.92,4.206,4.206,0,0,0-.753,1.3,7.068,7.068,0,0,0-.368,1.506Zm16.83-3.379a12.906,12.906,0,0,0-1.389-.351,10.213,10.213,0,0,0-2.058-.184,8.14,8.14,0,0,0-1.422.134,8.547,8.547,0,0,0-1.054.234V-4.912H87.368V-21.575a22.255,22.255,0,0,1,2.928-.82,18.251,18.251,0,0,1,3.9-.385q.4,0,.937.05T96.2-22.6q.535.084,1.037.2t.8.217Z" transform="translate(119 309)" fill="#fff"/></g></g></svg>