<svg xmlns="http://www.w3.org/2000/svg" width="210" height="140" viewBox="0 0 210 140"><g transform="translate(-101 -47)"><rect width="210" height="140" transform="translate(101 47)" fill="#2e3e4e"/><g transform="translate(29 -6)"><rect width="5.487" height="21.276" transform="translate(118 109)" fill="#fff"/><path d="M6.653,0H11.5V4.062L8.264,9.078H5.228L6.653,4.062Z" transform="translate(121.182 109)" fill="#fff"/><path d="M26.3,6.1a6.945,6.945,0,0,1,2.3-2.259,5.707,5.707,0,0,1,2.928-.777,5.2,5.2,0,0,1,4.191,1.7,7.432,7.432,0,0,1,1.44,4.931v9.72h-5.13V11.089c.008-.124.016-.253.021-.384s.006-.323.006-.569a4.624,4.624,0,0,0-.5-2.458,1.781,1.781,0,0,0-1.61-.763,2.535,2.535,0,0,0-2.244,1.2,6.447,6.447,0,0,0-.819,3.463v7.838H21.757V11.089A7.957,7.957,0,0,0,21.3,7.675a1.735,1.735,0,0,0-1.625-.763,2.561,2.561,0,0,0-2.267,1.2,6.214,6.214,0,0,0-.8,3.441v7.852h-5.13V3.449h5.13V5.787A6.588,6.588,0,0,1,18.77,3.749a5.686,5.686,0,0,1,5.608.114A5.032,5.032,0,0,1,26.3,6.1" transform="translate(124.988 110.866)" fill="#fff"/><path d="M34.508,17.1v8.38H29.4V3.449h5.1V5.787a6.982,6.982,0,0,1,2.337-2.059,6.328,6.328,0,0,1,2.95-.663,5.961,5.961,0,0,1,4.845,2.344,9.3,9.3,0,0,1,1.893,6.036,9.293,9.293,0,0,1-1.893,6.034A5.958,5.958,0,0,1,39.8,19.823a6.332,6.332,0,0,1-2.95-.663A6.941,6.941,0,0,1,34.508,17.1M37.9,6.771a2.922,2.922,0,0,0-2.516,1.2,5.841,5.841,0,0,0-.877,3.47,5.841,5.841,0,0,0,.877,3.47,2.925,2.925,0,0,0,2.516,1.2,2.889,2.889,0,0,0,2.5-1.2,5.9,5.9,0,0,0,.862-3.476A5.913,5.913,0,0,0,40.4,7.968a2.887,2.887,0,0,0-2.5-1.2" transform="translate(135.898 110.866)" fill="#fff"/><path d="M49.44,3.065a8.913,8.913,0,0,1,6.435,2.223,8.128,8.128,0,0,1,2.315,6.156A8.128,8.128,0,0,1,55.875,17.6a8.913,8.913,0,0,1-6.435,2.223A8.972,8.972,0,0,1,42.978,17.6a8.1,8.1,0,0,1-2.329-6.156,8.1,8.1,0,0,1,2.329-6.156A8.979,8.979,0,0,1,49.44,3.065m0,3.648a3.005,3.005,0,0,0-2.587,1.219,5.894,5.894,0,0,0-.891,3.513,5.894,5.894,0,0,0,.891,3.513,3,3,0,0,0,2.587,1.218,2.959,2.959,0,0,0,2.551-1.218,5.931,5.931,0,0,0,.883-3.513,5.931,5.931,0,0,0-.883-3.513A2.956,2.956,0,0,0,49.44,6.713" transform="translate(142.742 110.866)" fill="#fff"/><path d="M64.712,7.8a6.566,6.566,0,0,0-1.332-.463,6.042,6.042,0,0,0-1.334-.15,3.735,3.735,0,0,0-3.028,1.261,5.463,5.463,0,0,0-1.062,3.613v7.353h-5.1V3.449h5.1V6.072a6.509,6.509,0,0,1,2.257-2.288,6.138,6.138,0,0,1,3.058-.719c.171,0,.356.008.555.021s.491.045.87.092Z" transform="translate(150.173 110.866)" fill="#fff"/><path d="M68.247.487V5.019H73.5V8.667H68.247v6.769a1.982,1.982,0,0,0,.441,1.5,2.763,2.763,0,0,0,1.753.393h2.622v3.648H68.687q-3.021,0-4.282-1.261t-1.261-4.282V8.667H60.607V5.019h2.537V.487Z" transform="translate(154.891 109.296)" fill="#fff"/><path d="M70.609,13.751h5.145V18.1L72.22,23.413H69.184L70.609,18.1Zm0-10.447h5.145V8.819H70.609Z" transform="translate(160.111 111.011)" fill="#fff"/></g></g></svg>