<svg xmlns="http://www.w3.org/2000/svg" width="288.52" height="67.912" viewBox="0 0 288.52 67.912"><defs><style>.a{fill:#e01e26;}.b{fill:#353a47;}.c{fill:#343946;}</style></defs><g transform="translate(-265 -429)"><g transform="translate(31.698 61.698)"><path class="a" d="M25.456,50.912l0,0L0,25.456,25.456,0,50.912,25.456H33.941L25.456,16.97,16.97,25.456l8.485,8.485V50.912Z" transform="translate(233.302 367.302)"/><path class="b" d="M25.456,50.912l0,0L0,25.456,25.456,0,50.912,25.456H33.941L25.456,16.97,16.97,25.456l8.485,8.485V50.912Z" transform="translate(284.214 435.214) rotate(180)"/></g><path class="c" d="M9.51.42c5.4,0,8.52-3.27,8.52-6.99,0-3.15-1.65-5.01-4.41-6.12L10.83-13.8c-1.98-.78-3.39-1.26-3.39-2.49,0-1.2,1.02-1.86,2.67-1.86a7.26,7.26,0,0,1,4.59,1.71l2.67-3.36a10.387,10.387,0,0,0-7.26-2.94c-4.74,0-8.1,3-8.1,6.75,0,3.24,2.19,5.19,4.53,6.12l2.85,1.2c1.92.81,3.15,1.23,3.15,2.52,0,1.2-.93,1.95-2.91,1.95A9.025,9.025,0,0,1,4.2-6.48L1.17-2.79A12.491,12.491,0,0,0,9.51.42Zm16.35,0a12.555,12.555,0,0,0,3.87-.63l-.84-3.84a6,6,0,0,1-1.56.3c-1.26,0-2.16-.75-2.16-2.64V-12.9h4.02v-4.17H25.17v-4.5H20.73l-.6,4.5-2.61.21v3.96h2.31v6.57C19.83-2.28,21.57.42,25.86.42ZM31.29,0H36.6V-9.75c.9-2.25,2.43-3.06,3.69-3.06a6.941,6.941,0,0,1,1.86.27l.9-4.59a4.82,4.82,0,0,0-2.07-.36c-1.71,0-3.6,1.11-4.86,3.39H36l-.36-2.97H31.29ZM51.06.42c4.32,0,8.34-3.3,8.34-8.94,0-5.67-4.02-8.97-8.34-8.97-4.35,0-8.37,3.3-8.37,8.97C42.69-2.88,46.71.42,51.06.42Zm0-4.32c-2.01,0-2.91-1.8-2.91-4.62,0-2.85.9-4.65,2.91-4.65,1.98,0,2.88,1.8,2.88,4.65C53.94-5.7,53.04-3.9,51.06-3.9ZM61.56,0h5.31V-11.4c1.05-.99,1.77-1.53,2.97-1.53,1.35,0,1.98.69,1.98,3.03V0h5.34V-10.56c0-4.26-1.59-6.93-5.31-6.93a7.721,7.721,0,0,0-5.46,2.55h-.12l-.36-2.13H61.56ZM86.22,7.17c5.94,0,9.66-2.55,9.66-6.15,0-3.09-2.37-4.38-6.57-4.38h-2.7c-1.83,0-2.52-.36-2.52-1.14a1.389,1.389,0,0,1,.54-1.2,7.59,7.59,0,0,0,2.01.3c3.78,0,6.81-1.74,6.81-5.73a4.485,4.485,0,0,0-.48-2.07h2.64v-3.87H89.34a8.361,8.361,0,0,0-2.7-.42c-3.69,0-7.14,2.04-7.14,6.21a5.466,5.466,0,0,0,2.31,4.41v.12a4.116,4.116,0,0,0-1.89,3.18A3.315,3.315,0,0,0,81.48-.63v.15a3.783,3.783,0,0,0-2.43,3.36C79.05,5.94,82.29,7.17,86.22,7.17Zm.42-15.78c-1.23,0-2.16-.9-2.16-2.67,0-1.74.93-2.64,2.16-2.64,1.26,0,2.16.9,2.16,2.64C88.8-9.51,87.9-8.61,86.64-8.61Zm.42,12.45c-2.19,0-3.63-.6-3.63-1.8A2.011,2.011,0,0,1,84.24.51a9.129,9.129,0,0,0,2.43.21h1.62c1.59,0,2.49.21,2.49,1.23C90.78,3.03,89.25,3.84,87.06,3.84ZM107.31,0h6.42l6.72-22.32h-5.46l-2.52,10.17c-.63,2.4-1.11,4.71-1.74,7.14h-.15c-.66-2.43-1.08-4.74-1.74-7.14l-2.55-10.17h-5.67Zm20.88.42a11.035,11.035,0,0,0,6.12-1.95l-1.77-3.21a6.946,6.946,0,0,1-3.6,1.08c-2.16,0-3.78-.96-4.26-3.3H134.7a9.7,9.7,0,0,0,.24-2.28c0-4.68-2.4-8.25-7.32-8.25-4.14,0-8.1,3.42-8.1,8.97C119.52-2.88,123.3.42,128.19.42Zm-3.6-10.86c.36-2.04,1.65-2.97,3.12-2.97,1.95,0,2.7,1.26,2.7,2.97ZM137.16,0h5.31V-11.4c1.05-.99,1.77-1.53,2.97-1.53,1.35,0,1.98.69,1.98,3.03V0h5.34V-10.56c0-4.26-1.59-6.93-5.31-6.93a7.721,7.721,0,0,0-5.46,2.55h-.12l-.36-2.13h-4.35Zm25.26.42a12.555,12.555,0,0,0,3.87-.63l-.84-3.84a6,6,0,0,1-1.56.3c-1.26,0-2.16-.75-2.16-2.64V-12.9h4.02v-4.17h-4.02v-4.5h-4.44l-.6,4.5-2.61.21v3.96h2.31v6.57C156.39-2.28,158.13.42,162.42.42Zm10.56,0a6.635,6.635,0,0,0,5.34-2.76h.12L178.83,0h4.35V-17.07h-5.34V-5.88c-.9,1.26-1.65,1.74-2.85,1.74-1.35,0-1.98-.66-1.98-3.03v-9.9h-5.34V-6.51C167.67-2.25,169.26.42,172.98.42ZM186.27,0h5.31V-9.75c.9-2.25,2.43-3.06,3.69-3.06a6.941,6.941,0,0,1,1.86.27l.9-4.59a4.82,4.82,0,0,0-2.07-.36c-1.71,0-3.6,1.11-4.86,3.39h-.12l-.36-2.97h-4.35Zm20.07.42a11.035,11.035,0,0,0,6.12-1.95l-1.77-3.21a6.946,6.946,0,0,1-3.6,1.08c-2.16,0-3.78-.96-4.26-3.3h10.02a9.7,9.7,0,0,0,.24-2.28c0-4.68-2.4-8.25-7.32-8.25-4.14,0-8.1,3.42-8.1,8.97C197.67-2.88,201.45.42,206.34.42Zm-3.6-10.86c.36-2.04,1.65-2.97,3.12-2.97,1.95,0,2.7,1.26,2.7,2.97ZM220.41.42c4.65,0,7.11-2.43,7.11-5.58,0-3.09-2.37-4.32-4.5-5.13-1.77-.63-3.33-1.02-3.33-2.04,0-.81.6-1.23,1.8-1.23a6.553,6.553,0,0,1,3.54,1.44l2.4-3.18a9.919,9.919,0,0,0-6.12-2.19c-3.96,0-6.6,2.19-6.6,5.43,0,2.82,2.4,4.2,4.44,5.01,1.74.69,3.39,1.17,3.39,2.19,0,.84-.6,1.35-2.01,1.35a7.228,7.228,0,0,1-4.32-1.8l-2.37,3.33A10.962,10.962,0,0,0,220.41.42Z" transform="translate(326 476)"/></g></svg>